<svg id="Capa_1" enable-background="new 0 0 512 512" height="512" viewBox="0 0 512 512" width="512" xmlns="http://www.w3.org/2000/svg"><g><path d="m151 120c0-33.084-26.916-60-60-60s-60 26.916-60 60 26.916 60 60 60 60-26.916 60-60zm-60 30c-16.542 0-30-13.458-30-30s13.458-30 30-30 30 13.458 30 30-13.458 30-30 30z"/><path d="m481 120c0-33.084-26.916-60-60-60s-60 26.916-60 60 26.916 60 60 60 60-26.916 60-60zm-60 30c-16.542 0-30-13.458-30-30s13.458-30 30-30 30 13.458 30 30-13.458 30-30 30z"/><path d="m421 180c-27.713 0-52.536 12.594-69.059 32.355-16.379-36.706-53.219-62.355-95.941-62.355s-79.562 25.649-95.941 62.355c-16.523-19.761-41.346-32.355-69.059-32.355-49.915 0-91 40.422-91 90v75c0 8.284 6.716 15 15 15h16.407l13.666 138.473c.757 7.676 7.213 13.527 14.927 13.527h61c7.714 0 14.17-5.851 14.927-13.527l13.666-138.473h50.09l11.368 138.229c.639 7.782 7.141 13.771 14.949 13.771h60c7.808 0 14.31-5.989 14.949-13.771l11.369-138.229h50.089l13.665 138.473c.758 7.676 7.214 13.527 14.928 13.527h61c7.714 0 14.17-5.851 14.928-13.527l13.665-138.473h16.407c8.284 0 15-6.716 15-15v-75c0-49.519-41.033-90-91-90zm-285 150c-7.714 0-14.17 5.851-14.927 13.527l-13.666 138.473h-33.814l-13.666-138.473c-.757-7.676-7.213-13.527-14.927-13.527h-15v-60c0-33.084 27.364-60 61-60 33.084 0 60 26.916 60 60v60zm162.501 0c-7.808 0-14.31 5.989-14.949 13.771l-11.369 138.229h-32.366l-11.368-138.229c-.64-7.781-7.142-13.771-14.95-13.771h-32.499v-75c0-36.219 25.808-66.522 60-73.491v73.491c0 8.284 6.716 15 15 15s15-6.716 15-15v-73.491c34.192 6.968 60 37.271 60 73.491v75zm183.499 0h-15c-7.714 0-14.17 5.851-14.928 13.527l-13.665 138.473h-33.814l-13.665-138.473c-.758-7.676-7.214-13.527-14.928-13.527h-15v-60c0-33.084 26.916-60 60-60 33.636 0 61 26.916 61 60z"/><path d="m331 75c0-41.355-33.645-75-75-75s-75 33.645-75 75 33.645 75 75 75 75-33.645 75-75zm-75 45c-24.813 0-45-20.187-45-45s20.187-45 45-45 45 20.187 45 45-20.187 45-45 45z"/></g></svg>